<svg version="1.1" width="512" height="512" viewBox="0 0 512 512" xmlns="http://www.w3.org/2000/svg" xmlns:xlink="http://www.w3.org/1999/xlink" id="Layer_1" overflow="hidden"><g><g><g><path d=" M 162.133 256 L 196.266 256 C 200.985 256 204.799 252.177 204.799 247.467 C 204.799 242.757 200.985 238.934 196.266 238.934 L 162.133 238.934 C 157.414 238.934 153.6 242.757 153.6 247.467 C 153.6 252.177 157.414 256 162.133 256 Z" stroke="none" stroke-width="1" stroke-linecap="butt" fill="#002060" fill-opacity="1"/><path d=" M 128 204.8 C 132.719 204.8 136.533 200.977 136.533 196.267 C 136.533 191.557 132.719 187.734 128 187.734 L 93.867 187.734 C 89.148 187.734 85.334 191.557 85.334 196.267 L 85.334 264.534 C 85.334 269.244 89.148 273.067 93.867 273.067 L 128 273.067 C 132.719 273.067 136.533 269.244 136.533 264.534 C 136.533 259.824 132.719 256.001 128 256.001 L 102.4 256.001 L 102.4 238.934 L 128 238.934 C 132.719 238.934 136.533 235.111 136.533 230.401 C 136.533 225.691 132.719 221.868 128 221.868 L 102.4 221.868 L 102.4 204.8 L 128 204.8 Z" stroke="none" stroke-width="1" stroke-linecap="butt" fill="#002060" fill-opacity="1"/><path d=" M 256 409.6 C 251.281 409.6 247.467 413.423 247.467 418.133 L 247.467 440.2 L 190.234 497.433 C 186.898 500.77 186.898 506.163 190.234 509.499 C 191.898 511.163 194.083 511.999 196.267 511.999 C 198.452 511.999 200.636 511.163 202.3 509.499 L 262.033 449.766 C 263.629 448.162 264.533 445.994 264.533 443.733 L 264.533 418.133 C 264.533 413.423 260.719 409.6 256 409.6 Z" stroke="none" stroke-width="1" stroke-linecap="butt" fill="#002060" fill-opacity="1"/><path d=" M 287.633 463.3 C 284.296 459.963 278.903 459.963 275.567 463.3 C 272.23 466.636 272.23 472.03 275.567 475.366 L 309.7 509.5 C 311.364 511.164 313.549 512 315.733 512 C 317.918 512 320.102 511.164 321.766 509.5 C 325.103 506.164 325.103 500.77 321.766 497.434 L 287.633 463.3 Z" stroke="none" stroke-width="1" stroke-linecap="butt" fill="#002060" fill-opacity="1"/><path d=" M 503.467 17.067 L 264.533 17.067 L 264.533 8.533 C 264.533 3.823 260.719 0 256 0 C 251.281 0 247.467 3.823 247.467 8.533 L 247.467 17.066 L 8.533 17.066 C 3.814 17.067 0 20.89 0 25.6 L 0 59.733 C 0 64.443 3.814 68.266 8.533 68.266 L 452.266 68.266 C 456.985 68.266 460.799 64.443 460.799 59.733 C 460.799 55.023 456.985 51.2 452.266 51.2 L 17.066 51.2 L 17.066 34.133 L 494.933 34.133 L 494.933 51.2 L 486.4 51.2 C 481.681 51.2 477.867 55.023 477.867 59.733 L 477.867 349.866 C 477.867 363.98 466.381 375.466 452.267 375.466 L 59.733 375.466 C 45.619 375.466 34.133 363.98 34.133 349.866 L 34.133 93.866 C 34.133 89.156 30.319 85.333 25.6 85.333 C 20.881 85.333 17.067 89.156 17.067 93.866 L 17.067 349.866 C 17.067 373.392 36.207 392.533 59.734 392.533 L 452.267 392.533 C 475.793 392.533 494.934 373.393 494.934 349.866 L 494.934 68.266 L 503.467 68.266 C 508.186 68.266 512 64.443 512 59.733 L 512 25.6 C 512 20.89 508.186 17.067 503.467 17.067 Z" stroke="none" stroke-width="1" stroke-linecap="butt" fill="#002060" fill-opacity="1"/><path d=" M 426.667 196.267 C 426.667 182.153 415.181 170.667 401.067 170.667 C 386.953 170.667 375.467 182.153 375.467 196.267 C 375.467 200.977 379.281 204.8 384 204.8 C 388.719 204.8 392.533 200.977 392.533 196.267 C 392.533 191.565 396.356 187.734 401.066 187.734 C 405.776 187.734 409.599 191.565 409.599 196.242 C 409.394 198.887 402.738 206.004 395.946 210.774 L 378.879 223.574 C 375.944 225.784 374.74 229.616 375.909 233.097 C 377.061 236.587 380.321 238.934 383.999 238.934 L 418.132 238.934 C 422.851 238.934 426.665 235.111 426.665 230.401 C 426.665 225.691 422.851 221.868 418.132 221.868 L 409.616 221.868 C 416.145 216.704 426.667 206.754 426.667 196.267 Z" stroke="none" stroke-width="1" stroke-linecap="butt" fill="#002060" fill-opacity="1"/><path d=" M 332.8 204.8 C 337.51 204.8 341.333 208.631 341.333 213.333 C 341.333 218.043 345.147 221.866 349.866 221.866 C 354.585 221.866 358.399 218.043 358.399 213.333 C 358.399 199.219 346.913 187.733 332.799 187.733 C 318.685 187.733 307.199 199.219 307.199 213.333 L 307.199 247.466 C 307.199 261.58 318.685 273.066 332.799 273.066 C 346.913 273.066 358.399 261.58 358.399 247.466 C 358.399 242.756 354.585 238.933 349.866 238.933 C 345.147 238.933 341.333 242.756 341.333 247.466 C 341.333 252.168 337.51 255.999 332.8 255.999 C 328.09 255.999 324.267 252.168 324.267 247.466 L 324.267 213.333 C 324.267 208.631 328.09 204.8 332.8 204.8 Z" stroke="none" stroke-width="1" stroke-linecap="butt" fill="#002060" fill-opacity="1"/><path d=" M 281.6 273.067 C 286.319 273.067 290.133 269.244 290.133 264.534 L 290.133 196.267 C 290.133 192.589 287.786 189.338 284.296 188.169 C 280.806 187.017 276.983 188.22 274.773 191.147 L 256 216.183 L 237.227 191.146 C 235.025 188.211 231.202 187.007 227.704 188.168 C 224.214 189.337 221.867 192.588 221.867 196.266 L 221.867 264.533 C 221.867 269.243 225.681 273.066 230.4 273.066 C 235.119 273.066 238.933 269.243 238.933 264.533 L 238.933 221.866 L 249.173 235.519 C 252.39 239.82 259.609 239.82 262.826 235.519 L 273.066 221.866 L 273.066 264.533 C 273.067 269.244 276.881 273.067 281.6 273.067 Z" stroke="none" stroke-width="1" stroke-linecap="butt" fill="#002060" fill-opacity="1"/><path d=" M 162.133 221.867 L 196.266 221.867 C 200.985 221.867 204.799 218.044 204.799 213.334 C 204.799 208.624 200.985 204.801 196.266 204.801 L 162.133 204.801 C 157.414 204.801 153.6 208.624 153.6 213.334 C 153.6 218.044 157.414 221.867 162.133 221.867 Z" stroke="none" stroke-width="1" stroke-linecap="butt" fill="#002060" fill-opacity="1"/></g></g></g><g></g><g></g><g></g><g></g><g></g><g></g><g></g><g></g><g></g><g></g><g></g><g></g><g></g><g></g><g></g></svg>