<svg version="1.1" width="512" height="512" viewBox="0 0 512.001 512.001" xmlns="http://www.w3.org/2000/svg" xmlns:xlink="http://www.w3.org/1999/xlink" id="Layer_1" overflow="hidden"><g><g><g><path d=" M 256.001 221.868 C 266.762 221.868 276.131 217.823 281.601 214.819 C 287.071 217.823 296.44 221.868 307.201 221.868 C 323.09 221.868 340.848 212.84 348.434 201.004 C 349.185 199.869 366.934 172.742 366.934 128.001 C 366.934 95.062 340.139 68.268 307.201 68.268 C 297.55 68.268 288.752 71.809 281.601 75.573 C 274.45 71.81 265.652 68.268 256.001 68.268 C 223.062 68.268 196.268 95.063 196.268 128.001 C 196.268 178.561 211.995 198.205 215.417 201.866 C 223.13 211.577 238.968 221.868 256.001 221.868 Z M 256.001 85.335 C 263.613 85.335 271.395 89.277 277.326 92.716 C 279.971 94.252 283.231 94.252 285.876 92.716 C 291.807 89.277 299.589 85.335 307.201 85.335 C 330.727 85.335 349.868 104.475 349.868 128.002 C 349.868 167.272 334.38 191.319 334.15 191.661 C 330.165 197.873 318.124 204.802 307.202 204.802 C 296.203 204.802 286.756 198.001 286.696 197.958 C 285.186 196.832 283.394 196.268 281.602 196.268 C 279.81 196.268 278.018 196.831 276.508 197.958 C 276.414 198.026 267.002 204.802 256.002 204.802 C 245.131 204.802 233.781 197.711 228.619 191.046 C 228.448 190.824 228.158 190.5 227.962 190.295 C 227.817 190.141 213.336 174.269 213.336 128.002 C 213.334 104.475 232.474 85.335 256.001 85.335 Z" stroke="none" stroke-width="1" stroke-linecap="butt" fill="#002060" fill-opacity="1"/><path d=" M 274.288 55.596 C 275.884 58.258 278.708 59.735 281.61 59.735 C 283.103 59.735 284.622 59.342 285.996 58.515 C 290.032 56.092 291.346 50.852 288.914 46.807 L 263.314 4.14 C 260.89 0.104 255.651 -1.21 251.606 1.222 C 247.57 3.645 246.256 8.885 248.688 12.93 L 274.288 55.596 Z" stroke="none" stroke-width="1" stroke-linecap="butt" fill="#002060" fill-opacity="1"/><path d=" M 300.929 54.367 C 301.526 54.563 306.971 56.313 314.173 56.313 L 314.182 56.313 C 324.388 56.313 333.263 52.831 339.825 46.261 C 355.441 30.645 348.239 8.305 347.923 7.357 C 347.07 4.814 345.073 2.817 342.53 1.964 C 341.924 1.768 336.48 0.018 329.269 0.018 C 319.063 0.018 310.197 3.491 303.626 10.062 C 288.01 25.687 295.221 48.018 295.528 48.966 C 296.38 51.517 298.377 53.514 300.929 54.367 Z M 315.691 22.128 C 319.036 18.783 323.601 17.085 329.268 17.085 C 330.471 17.085 331.606 17.162 332.613 17.281 C 333.134 21.88 332.895 29.057 327.758 34.194 C 324.413 37.539 319.839 39.246 314.181 39.246 C 312.978 39.246 311.843 39.161 310.836 39.05 C 310.315 34.442 310.554 27.265 315.691 22.128 Z" stroke="none" stroke-width="1" stroke-linecap="butt" fill="#002060" fill-opacity="1"/><path d=" M 486.401 238.935 L 76.801 238.935 C 62.687 238.935 51.201 250.421 51.201 264.535 L 51.201 298.668 C 51.201 303.378 55.024 307.201 59.734 307.201 C 64.444 307.201 68.267 303.378 68.267 298.668 L 68.267 264.535 C 68.267 259.833 72.098 256.002 76.8 256.002 L 102.4 256.002 L 102.4 298.669 C 102.4 303.379 106.223 307.202 110.933 307.202 C 115.643 307.202 119.466 303.379 119.466 298.669 L 119.466 256.002 L 341.333 256.002 L 341.333 298.669 C 341.333 303.379 345.156 307.202 349.866 307.202 C 354.576 307.202 358.399 303.379 358.399 298.669 L 358.399 256.002 L 443.732 256.002 L 443.732 298.669 C 443.732 303.379 447.555 307.202 452.265 307.202 C 456.975 307.202 460.798 303.379 460.798 298.669 L 460.798 256.002 L 486.398 256.002 C 491.1 256.002 494.931 259.833 494.931 264.535 L 494.931 324.268 L 469.331 324.268 C 464.621 324.268 460.798 328.091 460.798 332.801 L 460.798 409.601 L 452.265 409.601 C 447.555 409.601 443.732 413.424 443.732 418.134 C 443.732 422.844 447.555 426.667 452.265 426.667 L 477.865 426.667 L 477.865 486.4 C 477.865 491.102 474.034 494.933 469.332 494.933 L 204.801 494.933 L 204.801 452.266 C 204.801 447.556 200.978 443.733 196.268 443.733 C 191.558 443.733 187.735 447.556 187.735 452.266 L 187.735 494.933 L 170.668 494.933 L 170.668 452.266 C 170.668 447.556 166.845 443.733 162.135 443.733 C 157.425 443.733 153.602 447.556 153.602 452.266 L 153.602 494.933 L 136.535 494.933 L 136.535 452.266 C 136.535 447.556 132.712 443.733 128.002 443.733 C 123.292 443.733 119.469 447.556 119.469 452.266 L 119.469 494.933 L 42.669 494.933 C 37.967 494.933 34.136 491.102 34.136 486.4 L 34.136 452.267 C 34.136 447.557 30.313 443.734 25.603 443.734 C 20.893 443.734 17.07 447.557 17.07 452.267 L 17.07 486.4 C 17.07 500.514 28.556 512 42.67 512 L 469.337 512 C 483.451 512 494.937 500.514 494.937 486.4 L 494.937 426.667 C 494.937 415.582 486.148 409.6 477.87 409.6 L 477.87 341.333 L 494.937 341.333 C 503.214 341.333 512.004 335.351 512.004 324.266 L 512.004 264.533 C 512.001 250.421 500.515 238.935 486.401 238.935 Z" stroke="none" stroke-width="1" stroke-linecap="butt" fill="#002060" fill-opacity="1"/><path d=" M 332.801 426.668 C 337.511 426.668 341.334 422.845 341.334 418.135 C 341.334 413.425 337.511 409.602 332.801 409.602 L 238.934 409.602 L 238.934 341.335 L 358.401 341.335 L 358.401 469.335 C 358.401 472.484 360.133 475.377 362.907 476.861 C 365.672 478.337 369.051 478.175 371.671 476.434 L 392.535 462.525 L 413.399 476.434 C 414.833 477.39 416.48 477.868 418.135 477.868 C 419.517 477.868 420.9 477.535 422.163 476.861 C 424.936 475.376 426.669 472.483 426.669 469.335 L 426.669 341.335 L 435.202 341.335 C 439.912 341.335 443.735 337.512 443.735 332.802 C 443.735 328.092 439.912 324.269 435.202 324.269 L 25.602 324.269 C 11.249 324.269 0.002 335.516 0.002 349.869 L 0.002 401.069 C 0.002 415.183 11.488 426.669 25.602 426.669 L 332.801 426.669 Z M 375.467 341.335 L 409.6 341.335 L 409.6 453.386 L 397.269 445.168 C 394.402 443.257 390.664 443.257 387.797 445.168 L 375.466 453.386 L 375.466 341.335 Z M 102.401 341.335 L 221.868 341.335 L 221.868 409.602 L 102.401 409.602 L 102.401 341.335 Z M 17.067 401.068 L 17.067 349.868 C 17.067 345.004 20.736 341.335 25.6 341.335 L 85.333 341.335 L 85.333 409.602 L 25.601 409.602 C 20.814 409.602 17.067 405.855 17.067 401.068 Z" stroke="none" stroke-width="1" stroke-linecap="butt" fill="#002060" fill-opacity="1"/><path d=" M 179.201 358.401 C 174.491 358.401 170.668 362.224 170.668 366.934 L 170.668 384.001 C 170.668 388.711 174.491 392.534 179.201 392.534 C 183.911 392.534 187.734 388.711 187.734 384.001 L 187.734 366.934 C 187.734 362.224 183.911 358.401 179.201 358.401 Z" stroke="none" stroke-width="1" stroke-linecap="butt" fill="#002060" fill-opacity="1"/><path d=" M 145.067 358.401 C 140.357 358.401 136.534 362.224 136.534 366.934 L 136.534 384.001 C 136.534 388.711 140.357 392.534 145.067 392.534 C 149.777 392.534 153.6 388.711 153.6 384.001 L 153.6 366.934 C 153.601 362.224 149.778 358.401 145.067 358.401 Z" stroke="none" stroke-width="1" stroke-linecap="butt" fill="#002060" fill-opacity="1"/></g></g></g><g></g><g></g><g></g><g></g><g></g><g></g><g></g><g></g><g></g><g></g><g></g><g></g><g></g><g></g><g></g></svg>