<svg version="1.1" width="512" height="512" viewBox="0 0 512 512" xmlns="http://www.w3.org/2000/svg" xmlns:xlink="http://www.w3.org/1999/xlink" id="Layer_1" overflow="hidden"><g><g><g><path d=" M 65.826 170.317 C 70.349 171.64 75.085 169.037 76.399 164.506 C 101.675 77.696 182.545 17.067 273.067 17.067 C 287.557 17.067 301.961 18.577 315.99 21.573 C 315.683 33.852 320.982 42.275 324.395 47.685 C 325.342 49.187 326.631 51.235 326.784 51.516 C 326.784 82.117 320.529 87.1 320.597 87.117 C 306.764 87.117 284.066 99.473 275.532 115.405 C 270.293 125.176 270.719 135.518 276.718 144.529 C 280.831 150.699 284.372 157.559 287.803 164.198 C 295.056 178.244 303.103 193.826 315.741 193.826 C 318.412 193.826 321.296 193.126 324.419 191.565 C 334.369 186.59 341.503 172.442 348.398 158.771 C 351.436 152.746 355.899 143.906 358.544 141.098 C 367.205 142.276 371.438 150.109 377.164 162.517 C 381.379 171.648 385.74 181.077 394.307 185.361 C 408.728 192.572 456.148 185.02 482.354 173.892 C 486.271 172.228 488.361 167.927 487.252 163.814 C 469.341 97.595 420.692 42.513 357.102 16.477 C 352.742 14.685 347.749 16.776 345.966 21.136 C 344.183 25.496 346.273 30.48 350.634 32.263 C 406.963 55.337 450.594 103.081 468.642 160.912 C 442.086 170.273 408.004 173.089 401.937 170.094 C 398.729 168.49 395.503 161.518 392.661 155.365 C 386.713 142.48 378.564 124.833 357.76 123.911 C 347.008 123.262 340.949 135.636 333.158 151.09 C 328.584 160.152 321.681 173.848 316.177 176.554 C 313.011 175.812 306.722 163.635 302.967 156.364 C 299.494 149.64 295.56 142.019 290.918 135.065 C 288.401 131.293 288.298 127.709 290.577 123.46 C 296.439 112.52 314.027 104.183 320.597 104.183 C 336.025 104.183 343.85 86.468 343.85 51.515 C 343.85 46.549 341.299 42.504 338.841 38.587 C 335.223 32.861 331.494 26.931 333.704 16.81 C 334.685 12.313 331.921 7.841 327.458 6.715 C 309.786 2.261 291.482 0 273.067 0 C 175.002 0 87.39 65.69 60.015 159.744 C 58.692 164.267 61.303 169.003 65.826 170.317 Z" stroke="none" stroke-width="1" stroke-linecap="butt" fill="#002060" fill-opacity="1"/><path d=" M 375.433 226.304 C 372.967 227.004 369.596 227.977 368.7 228.045 C 356.907 228.045 349.432 237.176 343.979 243.84 C 341.897 246.383 338.134 250.948 335.736 251.017 C 331.879 249.088 327.826 248.116 323.687 248.116 C 313.626 248.116 304.914 254.098 302.968 262.358 C 301.594 268.161 303.617 276.105 313.387 280.995 C 327.245 287.924 341.573 295.084 347.947 301.458 C 352.333 305.844 359.919 308.361 368.768 308.361 C 382.208 308.361 400.077 301.833 406.212 283.418 C 408.635 276.165 414.43 270.618 420.036 265.259 C 426.538 259.021 432.691 253.142 432.776 244.702 C 432.836 239.718 430.626 234.957 426.222 230.545 C 420.223 224.555 412.057 221.508 401.936 221.508 C 392.226 221.508 382.515 224.282 375.433 226.304 Z M 415.71 244.471 C 415.309 246.152 411.059 250.222 408.235 252.927 C 401.792 259.088 393.779 266.76 390.025 278.024 C 385.81 290.653 371.576 291.293 368.768 291.293 C 363.793 291.293 360.67 289.979 360.021 289.399 C 351.675 281.053 336.785 273.604 321.015 265.728 C 320.981 265.711 320.955 265.702 320.921 265.685 C 322.525 265.028 325.495 264.985 328.106 266.282 C 330.862 267.664 333.695 268.364 336.511 268.364 C 345.957 268.364 351.922 261.077 357.179 254.651 C 361.028 249.966 364.996 245.111 368.699 245.111 C 371.728 245.111 375.253 244.104 380.117 242.713 C 386.577 240.87 394.615 238.574 401.937 238.574 C 407.441 238.574 411.435 239.897 414.148 242.61 C 415.334 243.806 415.659 244.471 415.71 244.471 Z" stroke="none" stroke-width="1" stroke-linecap="butt" fill="#002060" fill-opacity="1"/><path d=" M 492.817 191.164 C 492.168 186.488 487.799 183.237 483.2 183.877 C 478.532 184.526 475.264 188.835 475.913 193.503 C 477.21 202.881 477.867 212.43 477.867 221.868 C 477.867 333.979 387.328 425.328 275.525 426.651 C 245.18 407.272 216.739 383.532 229.411 353.973 C 252.161 300.87 230.99 281.081 221.944 272.616 L 220.246 271.003 C 217.66 268.426 214.742 266.668 212.173 265.124 C 205.927 261.378 204.246 260.371 207.599 250.31 C 209.818 243.628 212.77 240.514 216.175 236.904 C 224.068 228.558 230.101 220.256 230.101 196.123 C 230.101 182.077 222.976 170.873 210.551 165.386 C 196.462 159.157 177.646 161.358 167.697 170.387 C 161.485 176.036 159.394 183.725 161.971 191.464 C 168.055 209.683 154.154 236.017 128.179 255.498 C 121.301 260.652 119.253 258.288 118.024 256.88 C 110.404 248.099 110.993 223.122 117.247 216.876 C 121.437 212.686 122.683 207.336 120.575 202.566 C 113.663 186.89 69.571 188.102 60.825 188.512 C 56.669 188.708 53.256 191.866 52.744 195.996 C 51.66 204.819 51.2 212.559 51.2 221.869 C 51.2 324.184 120.482 412.751 219.674 437.259 C 224.231 438.394 228.873 435.595 229.999 431.021 C 231.134 426.447 228.335 421.822 223.761 420.696 C 132.207 398.071 68.267 316.305 68.267 221.867 C 68.267 215.945 68.472 210.714 68.924 205.381 C 83.362 205.364 95.625 207.036 101.88 208.948 C 92.092 224.231 93.167 254.277 105.131 268.067 C 113.707 277.949 126.149 278.358 138.42 269.151 C 171.205 244.566 186.804 211.943 178.16 186.07 C 177.887 185.225 177.614 184.432 179.184 183.007 C 183.673 178.928 195.099 177.204 203.649 180.993 C 209.964 183.783 213.036 188.733 213.036 196.123 C 213.036 215.383 209.153 219.496 203.777 225.179 C 199.792 229.403 194.826 234.651 191.404 244.917 C 183.733 267.966 196.038 275.355 203.393 279.767 C 205.296 280.902 207.088 281.977 208.18 283.069 C 208.803 283.692 209.511 284.358 210.288 285.083 C 217.797 292.097 231.758 305.162 213.727 347.24 C 193.281 394.95 246 428.213 268.511 442.421 C 269.876 443.274 271.455 443.735 273.068 443.735 C 395.402 443.735 494.935 344.202 494.935 221.868 C 494.933 211.644 494.225 201.318 492.817 191.164 Z" stroke="none" stroke-width="1" stroke-linecap="butt" fill="#002060" fill-opacity="1"/><path d=" M 415.667 413.602 C 374.229 444.476 324.915 460.8 273.066 460.8 C 141.32 460.8 34.133 353.621 34.133 221.867 C 34.133 217.157 30.31 213.334 25.6 213.334 C 20.89 213.334 17.067 217.157 17.067 221.867 C 17.067 360.167 127.318 473.122 264.534 477.654 L 264.534 503.467 C 264.534 508.177 268.357 512 273.067 512 C 277.777 512 281.6 508.177 281.6 503.467 L 281.6 477.526 C 334.003 475.828 383.744 458.676 425.865 427.29 C 429.645 424.474 430.422 419.132 427.606 415.343 C 424.789 411.571 419.456 410.786 415.667 413.602 Z" stroke="none" stroke-width="1" stroke-linecap="butt" fill="#002060" fill-opacity="1"/><path d=" M 279.595 345.745 C 268.945 345.745 256.453 357.999 251.896 368.998 C 248.338 377.591 249.396 385.604 254.806 391.014 C 259.9 396.108 267.461 399.035 275.551 399.035 C 283.641 399.035 291.201 396.108 296.304 391.014 C 301.97 385.348 303.353 377.019 300.195 367.573 C 298.07 361.19 293.855 354.44 288.94 349.516 C 286.498 347.085 283.179 345.745 279.595 345.745 Z M 284.237 378.94 C 280.448 382.729 270.601 382.626 266.914 379.034 C 266.795 378.667 266.803 376.534 269.064 372.796 C 272.008 367.941 276.164 364.51 278.417 363.29 C 280.84 366.166 282.94 369.767 284.006 372.967 C 284.954 375.791 285.039 378.146 284.237 378.94 Z" stroke="none" stroke-width="1" stroke-linecap="butt" fill="#002060" fill-opacity="1"/></g></g></g><g></g><g></g><g></g><g></g><g></g><g></g><g></g><g></g><g></g><g></g><g></g><g></g><g></g><g></g><g></g></svg>