<svg version="1.1" width="512" height="512" viewBox="0 0 129 129" xmlns="http://www.w3.org/2000/svg" xmlns:xlink="http://www.w3.org/1999/xlink" overflow="hidden"><g><path d=" M 6.5 110.9 C 6.5 111 6.5 111.1 6.6 111.3 C 6.6 111.4 6.7 111.6 6.7 111.7 C 6.7 111.8 6.8 111.9 6.8 112.1 C 6.9 112.2 6.9 112.3 7 112.5 C 7.1 112.6 7.1 112.7 7.2 112.8 C 7.3 112.9 7.4 113 7.4 113.1 C 7.5 113.2 7.6 113.3 7.7 113.4 C 7.7 113.4 7.8 113.5 7.8 113.5 C 7.8 113.5 7.9 113.5 7.9 113.6 C 8.2 113.9 8.6 114.1 9 114.2 C 9.1 114.2 9.1 114.2 9.2 114.3 C 9.6 114.4 10 114.5 10.4 114.5 L 10.4 114.5 L 118.3 114.5 L 118.3 114.5 C 118.7 114.5 119.1 114.4 119.5 114.3 C 119.6 114.3 119.6 114.3 119.7 114.2 C 120.1 114 120.5 113.8 120.8 113.6 C 120.8 113.6 120.9 113.6 120.9 113.5 C 120.9 113.5 121 113.4 121 113.4 C 121.1 113.3 121.2 113.2 121.3 113.1 C 121.4 113 121.5 112.9 121.5 112.8 C 121.6 112.7 121.6 112.6 121.7 112.5 C 121.8 112.4 121.8 112.3 121.9 112.1 C 122 112 122 111.9 122 111.7 C 122 111.6 122.1 111.4 122.1 111.3 C 122.1 111.2 122.2 111.1 122.2 110.9 C 122.2 110.8 122.2 110.6 122.2 110.5 C 122.2 110.4 122.2 110.4 122.2 110.3 L 122.2 18.7 C 122.2 16.4 120.4 14.6 118.1 14.6 L 10.5 14.6 C 8.2 14.6 6.4 16.4 6.4 18.7 L 6.4 110.3 C 6.4 110.4 6.4 110.4 6.4 110.5 C 6.5 110.6 6.5 110.7 6.5 110.9 Z M 19.3 106.2 L 49.6 70 L 62.2 78.8 C 62.9 79.3 63.7 79.5 64.5 79.5 C 65.3 79.5 66.1 79.3 66.8 78.8 L 79.4 70 L 109.7 106.2 L 19.3 106.2 Z M 114.4 99 L 86.1 65.3 L 114.3 45.6 L 114.3 99 Z M 14.7 22.8 L 114.4 22.8 L 114.4 35.7 L 64.6 70.4 L 14.7 35.7 L 14.7 22.8 Z M 14.7 45.6 L 42.9 65.3 L 14.7 99 L 14.7 45.6 Z" stroke="none" stroke-width="1" stroke-linecap="butt" fill="#002060" fill-opacity="1"/></g></svg>