<svg version="1.1" width="512" height="512" viewBox="0 0 512 512" xmlns="http://www.w3.org/2000/svg" xmlns:xlink="http://www.w3.org/1999/xlink" id="Layer_1" overflow="hidden"><g><g><g><path d=" M 375.451 315.733 C 375.451 311.023 371.628 307.2 366.918 307.2 L 315.718 307.2 C 311.008 307.2 307.185 311.023 307.185 315.733 C 307.185 320.443 311.008 324.266 315.718 324.266 L 366.918 324.266 C 371.628 324.267 375.451 320.444 375.451 315.733 Z" stroke="none" stroke-width="1" stroke-linecap="butt" fill="#002060" fill-opacity="1"/><path d=" M 341.317 93.867 L 341.317 51.2 C 341.317 46.49 337.494 42.667 332.784 42.667 C 328.074 42.667 324.251 46.49 324.251 51.2 L 324.251 93.867 C 324.251 117.393 343.391 136.534 366.918 136.534 L 443.718 136.534 L 443.718 298.667 C 443.718 303.377 447.541 307.2 452.251 307.2 C 456.961 307.2 460.784 303.377 460.784 298.667 L 460.784 128 C 460.784 123.29 456.961 119.467 452.251 119.467 L 366.918 119.467 C 352.803 119.467 341.317 107.981 341.317 93.867 Z" stroke="none" stroke-width="1" stroke-linecap="butt" fill="#002060" fill-opacity="1"/><path d=" M 366.917 204.8 L 298.65 204.8 C 293.94 204.8 290.117 208.623 290.117 213.333 C 290.117 218.043 293.94 221.866 298.65 221.866 L 366.917 221.866 C 371.627 221.866 375.45 218.043 375.45 213.333 C 375.451 208.623 371.628 204.8 366.917 204.8 Z" stroke="none" stroke-width="1" stroke-linecap="butt" fill="#002060" fill-opacity="1"/><path d=" M 273.051 213.333 C 273.051 208.623 269.228 204.8 264.518 204.8 L 213.318 204.8 C 208.608 204.8 204.785 208.623 204.785 213.333 C 204.785 218.043 208.608 221.866 213.318 221.866 L 264.518 221.866 C 269.228 221.867 273.051 218.044 273.051 213.333 Z" stroke="none" stroke-width="1" stroke-linecap="butt" fill="#002060" fill-opacity="1"/><path d=" M 213.317 256 C 208.607 256 204.784 259.823 204.784 264.533 C 204.784 269.243 208.607 273.066 213.317 273.066 L 230.384 273.066 C 235.094 273.066 238.917 269.243 238.917 264.533 C 238.917 259.823 235.094 256 230.384 256 L 213.317 256 Z" stroke="none" stroke-width="1" stroke-linecap="butt" fill="#002060" fill-opacity="1"/><path d=" M 213.317 170.667 L 298.65 170.667 C 303.36 170.667 307.183 166.844 307.183 162.134 C 307.183 157.424 303.36 153.601 298.65 153.601 L 213.317 153.601 C 208.607 153.601 204.784 157.424 204.784 162.134 C 204.784 166.844 208.607 170.667 213.317 170.667 Z" stroke="none" stroke-width="1" stroke-linecap="butt" fill="#002060" fill-opacity="1"/><path d=" M 264.517 273.067 L 349.85 273.067 C 354.56 273.067 358.383 269.244 358.383 264.534 C 358.383 259.824 354.56 256.001 349.85 256.001 L 264.517 256.001 C 259.807 256.001 255.984 259.824 255.984 264.534 C 255.984 269.244 259.807 273.067 264.517 273.067 Z" stroke="none" stroke-width="1" stroke-linecap="butt" fill="#002060" fill-opacity="1"/><path d=" M 315.717 358.4 C 311.007 358.4 307.184 362.223 307.184 366.933 C 307.184 371.643 311.007 375.466 315.717 375.466 L 332.784 375.466 C 337.494 375.466 341.317 371.643 341.317 366.933 C 341.317 362.223 337.494 358.4 332.784 358.4 L 315.717 358.4 Z" stroke="none" stroke-width="1" stroke-linecap="butt" fill="#002060" fill-opacity="1"/><path d=" M 281.584 307.2 L 213.317 307.2 C 208.607 307.2 204.784 311.023 204.784 315.733 C 204.784 320.443 208.607 324.266 213.317 324.266 L 281.584 324.266 C 286.294 324.266 290.117 320.443 290.117 315.733 C 290.117 311.023 286.294 307.2 281.584 307.2 Z" stroke="none" stroke-width="1" stroke-linecap="butt" fill="#002060" fill-opacity="1"/><path d=" M 281.584 358.4 L 213.317 358.4 C 208.607 358.4 204.784 362.223 204.784 366.933 C 204.784 371.643 208.607 375.466 213.317 375.466 L 281.584 375.466 C 286.294 375.466 290.117 371.643 290.117 366.933 C 290.117 362.223 286.294 358.4 281.584 358.4 Z" stroke="none" stroke-width="1" stroke-linecap="butt" fill="#002060" fill-opacity="1"/><path d=" M 484.754 351.497 L 467.687 334.43 C 454.571 321.314 434.586 321.34 421.488 334.43 L 309.684 446.234 C 308.088 447.83 307.184 450.006 307.184 452.267 L 307.184 503.467 C 307.184 508.177 311.007 512 315.717 512 L 366.917 512 C 369.178 512 371.354 511.096 372.95 509.5 L 484.754 397.696 C 498.348 384.102 498.348 365.099 484.754 351.497 Z M 410.454 369.596 L 423.988 383.13 L 349.85 457.268 L 336.316 443.734 L 410.454 369.596 Z M 324.251 494.933 L 324.251 455.799 L 363.385 494.933 L 324.251 494.933 Z M 375.451 482.867 L 361.917 469.333 L 436.055 395.195 L 449.589 408.729 L 375.451 482.867 Z M 472.688 385.63 L 461.654 396.664 L 422.52 357.53 L 433.554 346.496 C 440.295 339.763 448.846 339.729 455.621 346.496 L 472.688 363.563 C 479.591 370.475 479.591 378.726 472.688 385.63 Z" stroke="none" stroke-width="1" stroke-linecap="butt" fill="#002060" fill-opacity="1"/><path d=" M 281.584 494.933 L 59.717 494.933 C 45.603 494.933 34.117 483.447 34.117 469.333 L 34.117 42.667 C 34.117 28.553 45.603 17.067 59.717 17.067 L 329.251 17.067 L 412.084 99.9 C 415.42 103.237 420.814 103.237 424.15 99.9 C 427.487 96.564 427.487 91.17 424.15 87.834 L 338.817 2.5 C 337.221 0.896 335.045 0 332.784 0 L 59.717 0 C 36.191 0 17.051 19.14 17.051 42.667 L 17.051 469.334 C 17.051 492.86 36.191 512.001 59.718 512.001 L 281.585 512.001 C 286.295 512.001 290.118 508.178 290.118 503.468 C 290.118 498.758 286.294 494.933 281.584 494.933 Z" stroke="none" stroke-width="1" stroke-linecap="butt" fill="#002060" fill-opacity="1"/><path d=" M 281.584 409.6 L 213.317 409.6 C 208.607 409.6 204.784 413.423 204.784 418.133 C 204.784 422.843 208.607 426.666 213.317 426.666 L 281.584 426.666 C 286.294 426.666 290.117 422.843 290.117 418.133 C 290.117 413.423 286.294 409.6 281.584 409.6 Z" stroke="none" stroke-width="1" stroke-linecap="butt" fill="#002060" fill-opacity="1"/><path d=" M 170.651 162.133 C 170.651 157.423 166.828 153.6 162.118 153.6 L 110.918 153.6 C 106.208 153.6 102.385 157.423 102.385 162.133 L 102.385 213.333 C 102.385 218.043 106.208 221.866 110.918 221.866 L 162.118 221.866 C 166.828 221.866 170.651 218.043 170.651 213.333 L 170.651 162.133 Z M 153.584 204.8 L 119.451 204.8 L 119.451 170.667 L 153.584 170.667 L 153.584 204.8 Z" stroke="none" stroke-width="1" stroke-linecap="butt" fill="#002060" fill-opacity="1"/><path d=" M 110.917 426.667 L 162.117 426.667 C 166.827 426.667 170.65 422.844 170.65 418.134 L 170.65 366.934 C 170.65 362.224 166.827 358.401 162.117 358.401 L 110.917 358.401 C 106.207 358.401 102.384 362.224 102.384 366.934 L 102.384 418.134 C 102.384 422.844 106.207 426.667 110.917 426.667 Z M 119.451 375.467 L 153.584 375.467 L 153.584 409.6 L 119.451 409.6 L 119.451 375.467 Z" stroke="none" stroke-width="1" stroke-linecap="butt" fill="#002060" fill-opacity="1"/><path d=" M 121.951 321.766 C 123.555 323.37 125.731 324.266 127.984 324.266 C 128.266 324.266 128.539 324.258 128.829 324.223 C 131.372 323.976 133.667 322.593 135.084 320.468 L 169.217 269.268 C 171.828 265.343 170.77 260.043 166.853 257.432 C 162.919 254.812 157.637 255.879 155.017 259.796 L 126.661 302.335 L 116.95 292.633 C 113.614 289.296 108.22 289.296 104.884 292.633 C 101.548 295.97 101.547 301.363 104.884 304.699 L 121.951 321.766 Z" stroke="none" stroke-width="1" stroke-linecap="butt" fill="#002060" fill-opacity="1"/></g></g></g><g></g><g></g><g></g><g></g><g></g><g></g><g></g><g></g><g></g><g></g><g></g><g></g><g></g><g></g><g></g></svg>