<svg version="1.1" width="512" height="512" viewBox="0 0 512 512" xmlns="http://www.w3.org/2000/svg" xmlns:xlink="http://www.w3.org/1999/xlink" id="Layer_1" overflow="hidden"><g><g><g><path d=" M 360.465 443.988 C 355.891 442.827 351.258 445.626 350.123 450.192 L 341.59 484.325 C 340.438 488.907 343.228 493.532 347.802 494.676 C 348.493 494.855 349.193 494.932 349.876 494.932 C 353.699 494.932 357.172 492.346 358.145 488.472 L 366.678 454.339 C 367.821 449.765 365.039 445.132 360.465 443.988 Z" stroke="none" stroke-width="1" stroke-linecap="butt" fill="#002060" fill-opacity="1"/><path d=" M 256 273.066 C 257.109 273.066 258.219 272.853 259.26 272.418 L 353.127 233.574 C 357.479 231.773 359.544 226.781 357.744 222.429 C 355.943 218.068 350.934 216.02 346.591 217.804 L 256 255.299 L 17.067 156.432 L 17.067 153.599 C 17.067 148.889 13.244 145.066 8.534 145.066 C 3.824 145.066 0 148.889 0 153.599 L 0 162.132 C 0 165.588 2.082 168.703 5.274 170.017 L 252.741 272.417 C 253.781 272.852 254.891 273.066 256 273.066 Z" stroke="none" stroke-width="1" stroke-linecap="butt" fill="#002060" fill-opacity="1"/><path d=" M 357.513 360.49 C 355.431 356.266 350.328 354.525 346.087 356.616 C 329.882 364.629 302.814 373.947 264.534 375.219 L 264.534 298.666 C 264.534 293.956 260.711 290.133 256.001 290.133 C 251.291 290.133 247.468 293.956 247.468 298.666 L 247.468 375.142 C 141.51 371.763 107.317 307.575 102.401 296.891 L 102.401 238.933 C 102.401 234.223 98.578 230.4 93.868 230.4 C 89.158 230.4 85.335 234.223 85.335 238.933 L 85.335 298.666 C 85.335 299.75 85.54 300.825 85.941 301.84 C 87.426 305.535 123.744 392.532 256.002 392.532 C 302.227 392.532 334.62 381.319 353.649 371.915 C 357.879 369.825 359.612 364.714 357.513 360.49 Z" stroke="none" stroke-width="1" stroke-linecap="butt" fill="#002060" fill-opacity="1"/><path d=" M 384 452.266 C 379.281 452.266 375.467 456.089 375.467 460.799 L 375.467 486.399 C 375.467 491.109 379.281 494.932 384 494.932 C 388.719 494.932 392.533 491.109 392.533 486.399 L 392.533 460.799 C 392.533 456.089 388.719 452.266 384 452.266 Z" stroke="none" stroke-width="1" stroke-linecap="butt" fill="#002060" fill-opacity="1"/><path d=" M 503.467 145.066 C 498.748 145.066 494.934 148.889 494.934 153.599 L 494.934 156.415 L 392.534 198.561 L 392.534 183.141 L 506.727 135.883 C 509.918 134.569 512.001 131.454 512.001 127.998 C 512.001 124.542 509.919 121.436 506.736 120.113 L 259.26 17.714 C 257.169 16.852 254.831 16.852 252.741 17.714 L 5.274 120.114 C 2.082 121.437 0 124.543 0 127.999 C 0 131.455 2.082 134.57 5.274 135.884 L 252.741 238.284 C 253.782 238.719 254.891 238.933 256.001 238.933 C 257.111 238.933 258.22 238.72 259.261 238.284 L 348.742 201.258 C 353.103 199.466 355.168 194.474 353.367 190.113 C 351.566 185.761 346.574 183.704 342.222 185.496 L 256 221.166 L 30.848 127.999 L 256 34.832 L 481.152 127.999 L 383.181 168.541 L 289.34 133.503 C 289.835 131.728 290.134 129.902 290.134 127.999 C 290.134 113.646 275.141 102.399 256.001 102.399 C 236.861 102.399 221.868 113.646 221.868 127.999 C 221.868 142.352 236.861 153.599 256.001 153.599 C 264.543 153.599 272.163 151.269 278.085 147.515 L 375.467 183.876 L 375.467 211.217 L 375.467 211.226 L 375.467 394.104 C 365.56 397.645 358.4 407.023 358.4 418.134 C 358.4 432.248 369.886 443.734 384 443.734 C 398.114 443.734 409.6 432.248 409.6 418.134 C 409.6 407.024 402.441 397.646 392.533 394.104 L 392.533 345.669 C 417.032 327.177 425.813 302.55 426.197 301.458 C 426.504 300.562 426.666 299.615 426.666 298.668 L 426.666 238.935 C 426.666 234.225 422.852 230.402 418.133 230.402 C 413.414 230.402 409.6 234.225 409.6 238.935 L 409.6 297.09 C 408.124 300.708 402.995 311.861 392.533 322.869 L 392.533 217.019 L 506.718 170.026 C 509.918 168.712 512 165.589 512 162.133 L 512 153.6 C 512 148.889 508.186 145.066 503.467 145.066 Z M 256 136.532 C 245.581 136.532 238.933 131.48 238.933 127.999 C 238.933 124.517 245.58 119.466 256 119.466 C 266.42 119.466 273.067 124.518 273.067 127.999 C 273.067 131.481 266.419 136.532 256 136.532 Z M 384 426.666 C 379.29 426.666 375.467 422.835 375.467 418.133 C 375.467 413.431 379.29 409.6 384 409.6 C 388.71 409.6 392.533 413.431 392.533 418.133 C 392.533 422.834 388.71 426.666 384 426.666 Z" stroke="none" stroke-width="1" stroke-linecap="butt" fill="#002060" fill-opacity="1"/><path d=" M 417.877 450.192 C 416.734 445.627 412.091 442.836 407.535 443.988 C 402.961 445.131 400.179 449.765 401.323 454.339 L 409.856 488.472 C 410.829 492.346 414.302 494.932 418.125 494.932 C 418.808 494.932 419.507 494.855 420.199 494.676 C 424.773 493.533 427.555 488.907 426.411 484.325 L 417.877 450.192 Z" stroke="none" stroke-width="1" stroke-linecap="butt" fill="#002060" fill-opacity="1"/></g></g></g><g></g><g></g><g></g><g></g><g></g><g></g><g></g><g></g><g></g><g></g><g></g><g></g><g></g><g></g><g></g></svg>