<svg version="1.1" width="512" height="512" viewBox="0 0 129 129" xmlns="http://www.w3.org/2000/svg" xmlns:xlink="http://www.w3.org/1999/xlink" overflow="hidden"><g><g><path d=" M 64.5 6.4 C 39 6.4 18.2 27.2 18.2 52.8 C 18.2 55.9 18.5 59 19.1 62 C 19.1 62.2 19.2 62.4 19.2 62.7 C 24.3 85.6 60.2 120 61.7 121.4 C 62.5 122.2 63.5 122.5 64.5 122.5 C 65.5 122.5 66.5 122.1 67.3 121.4 C 68.8 119.9 104.5 85.6 109.6 63.2 C 109.6 63 109.7 62.8 109.7 62.6 C 110.4 59.4 110.7 56.1 110.7 52.8 C 110.8 27.2 90 6.4 64.5 6.4 Z M 101.7 61.1 C 101.7 61.3 101.7 61.2 101.7 61.4 C 97.9 78 73 104.2 64.5 112.7 C 56 104.2 31 78 27.2 61 C 27.2 60.8 27.2 60.7 27.1 60.5 C 26.6 57.9 26.3 55.3 26.3 52.7 C 26.3 31.7 43.4 14.5 64.4 14.5 C 85.4 14.5 102.6 31.6 102.6 52.7 C 102.6 55.6 102.3 58.4 101.7 61.1 Z" stroke="none" stroke-width="1" stroke-linecap="butt" fill="#002060" fill-opacity="1"/><path d=" M 64.5 32.5 C 55.9 32.5 49 39.5 49 48 C 49 56.5 56 63.5 64.5 63.5 C 73 63.5 80 56.6 80 48 C 80 39.4 73.1 32.5 64.5 32.5 Z M 64.5 55.4 C 60.4 55.4 57.1 52.1 57.1 48 C 57.1 43.9 60.4 40.6 64.5 40.6 C 68.6 40.6 71.9 43.9 71.9 48 C 71.9 52.1 68.6 55.4 64.5 55.4 Z" stroke="none" stroke-width="1" stroke-linecap="butt" fill="#002060" fill-opacity="1"/></g></g></svg>