<svg version="1.1" width="512" height="512" viewBox="0 0 129 129" xmlns="http://www.w3.org/2000/svg" xmlns:xlink="http://www.w3.org/1999/xlink" overflow="hidden"><g><path d=" M 36.9 114.3 L 90.9 122.5 C 91.1 122.5 91.3 122.5 91.5 122.5 C 92.5 122.5 93.4 122.2 94.2 121.5 C 95.1 120.7 95.6 119.6 95.6 118.4 L 95.6 18.7 C 95.6 16.7 94.1 15 92.1 14.7 L 38.1 6.5 C 36.9 6.3 35.7 6.7 34.8 7.4 C 33.9 8.2 33.4 9.3 33.4 10.5 L 33.4 110.2 C 33.4 112.3 34.9 114 36.9 114.3 Z M 41.6 15.3 L 87.4 22.2 L 87.4 113.7 L 41.6 106.8 L 41.6 15.3 Z" stroke="none" stroke-width="1" stroke-linecap="butt" fill="#002060" fill-opacity="1"/></g></svg>